<svg id="visual" viewBox="0 0 900 200" width="900" height="200" xmlns="http://www.w3.org/2000/svg" xmlns:xlink="http://www.w3.org/1999/xlink" version="1.1"><path d="M0 115L21.5 116.5C43 118 86 121 128.8 124.5C171.7 128 214.3 132 257.2 135.7C300 139.3 343 142.7 385.8 144.2C428.7 145.7 471.3 145.3 514.2 146.3C557 147.3 600 149.7 642.8 144.3C685.7 139 728.3 126 771.2 125.5C814 125 857 137 878.5 143L900 149L900 0L878.5 0C857 0 814 0 771.2 0C728.3 0 685.7 0 642.8 0C600 0 557 0 514.2 0C471.3 0 428.7 0 385.8 0C343 0 300 0 257.2 0C214.3 0 171.7 0 128.8 0C86 0 43 0 21.5 0L0 0Z" fill="#abedd8"></path><path d="M0 95L21.5 91.5C43 88 86 81 128.8 79.2C171.7 77.3 214.3 80.7 257.2 89.5C300 98.3 343 112.7 385.8 115C428.7 117.3 471.3 107.7 514.2 101.5C557 95.3 600 92.7 642.8 89.8C685.7 87 728.3 84 771.2 81.2C814 78.3 857 75.7 878.5 74.3L900 73L900 0L878.5 0C857 0 814 0 771.2 0C728.3 0 685.7 0 642.8 0C600 0 557 0 514.2 0C471.3 0 428.7 0 385.8 0C343 0 300 0 257.2 0C214.3 0 171.7 0 128.8 0C86 0 43 0 21.5 0L0 0Z" fill="#67b6c3"></path><path d="M0 45L21.5 49.2C43 53.3 86 61.7 128.8 67.2C171.7 72.7 214.3 75.3 257.2 79.3C300 83.3 343 88.7 385.8 90.3C428.7 92 471.3 90 514.2 87.2C557 84.3 600 80.7 642.8 79.2C685.7 77.7 728.3 78.3 771.2 73.2C814 68 857 57 878.5 51.5L900 46L900 0L878.5 0C857 0 814 0 771.2 0C728.3 0 685.7 0 642.8 0C600 0 557 0 514.2 0C471.3 0 428.7 0 385.8 0C343 0 300 0 257.2 0C214.3 0 171.7 0 128.8 0C86 0 43 0 21.5 0L0 0Z" fill="#4b7ea1"></path><path d="M0 29L21.5 29.3C43 29.7 86 30.3 128.8 31.5C171.7 32.7 214.3 34.3 257.2 34.8C300 35.3 343 34.7 385.8 37.5C428.7 40.3 471.3 46.7 514.2 48.7C557 50.7 600 48.3 642.8 48.7C685.7 49 728.3 52 771.2 52.7C814 53.3 857 51.7 878.5 50.8L900 50L900 0L878.5 0C857 0 814 0 771.2 0C728.3 0 685.7 0 642.8 0C600 0 557 0 514.2 0C471.3 0 428.7 0 385.8 0C343 0 300 0 257.2 0C214.3 0 171.7 0 128.8 0C86 0 43 0 21.5 0L0 0Z" fill="#48466d"></path></svg>