<svg id="visual" viewBox="0 0 900 200" width="900" height="200" xmlns="http://www.w3.org/2000/svg" xmlns:xlink="http://www.w3.org/1999/xlink" version="1.1"><path d="M0 83L21.5 81.5C43 80 86 77 128.8 73.5C171.7 70 214.3 66 257.2 62.3C300 58.7 343 55.3 385.8 53.8C428.7 52.3 471.3 52.7 514.2 51.7C557 50.7 600 48.3 642.8 53.7C685.7 59 728.3 72 771.2 72.5C814 73 857 61 878.5 55L900 49L900 201L878.5 201C857 201 814 201 771.2 201C728.3 201 685.7 201 642.8 201C600 201 557 201 514.2 201C471.3 201 428.7 201 385.8 201C343 201 300 201 257.2 201C214.3 201 171.7 201 128.8 201C86 201 43 201 21.5 201L0 201Z" fill="#abedd8"></path><path d="M0 103L21.5 106.5C43 110 86 117 128.8 118.8C171.7 120.7 214.3 117.3 257.2 108.5C300 99.7 343 85.3 385.8 83C428.7 80.7 471.3 90.3 514.2 96.5C557 102.7 600 105.3 642.8 108.2C685.7 111 728.3 114 771.2 116.8C814 119.7 857 122.3 878.5 123.7L900 125L900 201L878.5 201C857 201 814 201 771.2 201C728.3 201 685.7 201 642.8 201C600 201 557 201 514.2 201C471.3 201 428.7 201 385.8 201C343 201 300 201 257.2 201C214.3 201 171.7 201 128.8 201C86 201 43 201 21.5 201L0 201Z" fill="#67b6c3"></path><path d="M0 153L21.5 148.8C43 144.7 86 136.3 128.8 130.8C171.7 125.3 214.3 122.7 257.2 118.7C300 114.7 343 109.3 385.8 107.7C428.7 106 471.3 108 514.2 110.8C557 113.7 600 117.3 642.8 118.8C685.7 120.3 728.3 119.7 771.2 124.8C814 130 857 141 878.5 146.5L900 152L900 201L878.5 201C857 201 814 201 771.2 201C728.3 201 685.7 201 642.8 201C600 201 557 201 514.2 201C471.3 201 428.7 201 385.8 201C343 201 300 201 257.2 201C214.3 201 171.7 201 128.8 201C86 201 43 201 21.5 201L0 201Z" fill="#4b7ea1"></path><path d="M0 169L21.5 168.7C43 168.3 86 167.7 128.8 166.5C171.7 165.3 214.3 163.7 257.2 163.2C300 162.7 343 163.3 385.8 160.5C428.7 157.7 471.3 151.3 514.2 149.3C557 147.3 600 149.7 642.8 149.3C685.7 149 728.3 146 771.2 145.3C814 144.7 857 146.3 878.5 147.2L900 148L900 201L878.5 201C857 201 814 201 771.2 201C728.3 201 685.7 201 642.8 201C600 201 557 201 514.2 201C471.3 201 428.7 201 385.8 201C343 201 300 201 257.2 201C214.3 201 171.7 201 128.8 201C86 201 43 201 21.5 201L0 201Z" fill="#48466d"></path></svg>